<mxfile host="app.diagrams.net" modified="2023-05-31T06:23:36.457Z" agent="Mozilla/5.0 (Windows NT 10.0; Win64; x64) AppleWebKit/537.36 (KHTML, like Gecko) Chrome/113.0.0.0 Safari/537.36" etag="aRBd9js4oJYVy5D67dqj" version="21.3.4" type="github">
  <diagram name="페이지-1" id="hvZIgERoVf_NU7rgpbD5">
    <mxGraphModel dx="840" dy="1039" grid="1" gridSize="10" guides="1" tooltips="1" connect="1" arrows="1" fold="1" page="1" pageScale="1" pageWidth="827" pageHeight="1169" math="0" shadow="0">
      <root>
        <mxCell id="0" />
        <mxCell id="1" parent="0" />
        <mxCell id="bGtndV-CN3Tlhhb5ca_9-6" style="edgeStyle=orthogonalEdgeStyle;rounded=0;orthogonalLoop=1;jettySize=auto;html=1;exitX=0.5;exitY=1;exitDx=0;exitDy=0;exitPerimeter=0;entryX=0.5;entryY=0;entryDx=0;entryDy=0;" edge="1" parent="1" source="bGtndV-CN3Tlhhb5ca_9-1" target="bGtndV-CN3Tlhhb5ca_9-2">
          <mxGeometry relative="1" as="geometry" />
        </mxCell>
        <mxCell id="bGtndV-CN3Tlhhb5ca_9-1" value="Start" style="strokeWidth=2;html=1;shape=mxgraph.flowchart.start_1;whiteSpace=wrap;" vertex="1" parent="1">
          <mxGeometry x="280" y="90" width="100" height="60" as="geometry" />
        </mxCell>
        <mxCell id="bGtndV-CN3Tlhhb5ca_9-7" style="edgeStyle=orthogonalEdgeStyle;rounded=0;orthogonalLoop=1;jettySize=auto;html=1;exitX=0.5;exitY=1;exitDx=0;exitDy=0;entryX=0.5;entryY=0;entryDx=0;entryDy=0;entryPerimeter=0;" edge="1" parent="1" source="bGtndV-CN3Tlhhb5ca_9-2" target="bGtndV-CN3Tlhhb5ca_9-3">
          <mxGeometry relative="1" as="geometry" />
        </mxCell>
        <mxCell id="bGtndV-CN3Tlhhb5ca_9-2" value="배열 요소 개수&lt;br&gt;n" style="shape=parallelogram;perimeter=parallelogramPerimeter;whiteSpace=wrap;html=1;fixedSize=1;" vertex="1" parent="1">
          <mxGeometry x="270" y="170" width="120" height="60" as="geometry" />
        </mxCell>
        <mxCell id="bGtndV-CN3Tlhhb5ca_9-8" style="edgeStyle=orthogonalEdgeStyle;rounded=0;orthogonalLoop=1;jettySize=auto;html=1;exitX=0.5;exitY=1;exitDx=0;exitDy=0;exitPerimeter=0;entryX=0.5;entryY=0;entryDx=0;entryDy=0;" edge="1" parent="1" source="bGtndV-CN3Tlhhb5ca_9-3" target="bGtndV-CN3Tlhhb5ca_9-4">
          <mxGeometry relative="1" as="geometry" />
        </mxCell>
        <mxCell id="bGtndV-CN3Tlhhb5ca_9-3" value="array 입력&lt;br&gt;i : 0, 1, n" style="strokeWidth=2;html=1;shape=mxgraph.flowchart.loop_limit;whiteSpace=wrap;" vertex="1" parent="1">
          <mxGeometry x="260" y="250" width="140" height="60" as="geometry" />
        </mxCell>
        <mxCell id="bGtndV-CN3Tlhhb5ca_9-9" style="edgeStyle=orthogonalEdgeStyle;rounded=0;orthogonalLoop=1;jettySize=auto;html=1;exitX=0.5;exitY=1;exitDx=0;exitDy=0;entryX=0.5;entryY=1;entryDx=0;entryDy=0;entryPerimeter=0;" edge="1" parent="1" source="bGtndV-CN3Tlhhb5ca_9-4" target="bGtndV-CN3Tlhhb5ca_9-5">
          <mxGeometry relative="1" as="geometry" />
        </mxCell>
        <mxCell id="bGtndV-CN3Tlhhb5ca_9-4" value="array[i]" style="shape=parallelogram;perimeter=parallelogramPerimeter;whiteSpace=wrap;html=1;fixedSize=1;" vertex="1" parent="1">
          <mxGeometry x="270" y="330" width="120" height="60" as="geometry" />
        </mxCell>
        <mxCell id="bGtndV-CN3Tlhhb5ca_9-17" style="edgeStyle=orthogonalEdgeStyle;rounded=0;orthogonalLoop=1;jettySize=auto;html=1;exitX=0.5;exitY=0;exitDx=0;exitDy=0;exitPerimeter=0;entryX=0.5;entryY=0;entryDx=0;entryDy=0;entryPerimeter=0;" edge="1" parent="1" source="bGtndV-CN3Tlhhb5ca_9-5" target="bGtndV-CN3Tlhhb5ca_9-10">
          <mxGeometry relative="1" as="geometry" />
        </mxCell>
        <mxCell id="bGtndV-CN3Tlhhb5ca_9-5" value="array 입력" style="strokeWidth=2;html=1;shape=mxgraph.flowchart.loop_limit;whiteSpace=wrap;rotation=-180;" vertex="1" parent="1">
          <mxGeometry x="260" y="410" width="140" height="60" as="geometry" />
        </mxCell>
        <mxCell id="bGtndV-CN3Tlhhb5ca_9-18" style="edgeStyle=orthogonalEdgeStyle;rounded=0;orthogonalLoop=1;jettySize=auto;html=1;exitX=0.5;exitY=1;exitDx=0;exitDy=0;exitPerimeter=0;" edge="1" parent="1" source="bGtndV-CN3Tlhhb5ca_9-10" target="bGtndV-CN3Tlhhb5ca_9-11">
          <mxGeometry relative="1" as="geometry" />
        </mxCell>
        <mxCell id="bGtndV-CN3Tlhhb5ca_9-10" value="역순 정렬&lt;br&gt;int i : 0, 1, n/2" style="strokeWidth=2;html=1;shape=mxgraph.flowchart.loop_limit;whiteSpace=wrap;" vertex="1" parent="1">
          <mxGeometry x="260" y="490" width="140" height="60" as="geometry" />
        </mxCell>
        <mxCell id="bGtndV-CN3Tlhhb5ca_9-19" style="edgeStyle=orthogonalEdgeStyle;rounded=0;orthogonalLoop=1;jettySize=auto;html=1;exitX=0.5;exitY=1;exitDx=0;exitDy=0;entryX=0.5;entryY=0;entryDx=0;entryDy=0;" edge="1" parent="1" source="bGtndV-CN3Tlhhb5ca_9-11" target="bGtndV-CN3Tlhhb5ca_9-14">
          <mxGeometry relative="1" as="geometry" />
        </mxCell>
        <mxCell id="bGtndV-CN3Tlhhb5ca_9-11" value="temp = array[i]&lt;br&gt;array[i] = array[n-1-i]&lt;br&gt;array[n-1-i] = temp" style="rounded=0;whiteSpace=wrap;html=1;" vertex="1" parent="1">
          <mxGeometry x="270" y="580" width="120" height="60" as="geometry" />
        </mxCell>
        <mxCell id="bGtndV-CN3Tlhhb5ca_9-22" style="edgeStyle=orthogonalEdgeStyle;rounded=0;orthogonalLoop=1;jettySize=auto;html=1;exitX=0.5;exitY=1;exitDx=0;exitDy=0;exitPerimeter=0;entryX=0.5;entryY=0;entryDx=0;entryDy=0;" edge="1" parent="1" source="bGtndV-CN3Tlhhb5ca_9-12" target="bGtndV-CN3Tlhhb5ca_9-13">
          <mxGeometry relative="1" as="geometry" />
        </mxCell>
        <mxCell id="bGtndV-CN3Tlhhb5ca_9-12" value="출력문&lt;br&gt;int j : 0, 1, n" style="strokeWidth=2;html=1;shape=mxgraph.flowchart.loop_limit;whiteSpace=wrap;" vertex="1" parent="1">
          <mxGeometry x="280" y="730" width="100" height="60" as="geometry" />
        </mxCell>
        <mxCell id="bGtndV-CN3Tlhhb5ca_9-13" value="array[j]" style="shape=document;whiteSpace=wrap;html=1;boundedLbl=1;" vertex="1" parent="1">
          <mxGeometry x="270" y="810" width="120" height="60" as="geometry" />
        </mxCell>
        <mxCell id="bGtndV-CN3Tlhhb5ca_9-14" value="바뀐 배열 출력문구" style="shape=document;whiteSpace=wrap;html=1;boundedLbl=1;" vertex="1" parent="1">
          <mxGeometry x="270" y="660" width="120" height="60" as="geometry" />
        </mxCell>
        <mxCell id="bGtndV-CN3Tlhhb5ca_9-24" style="edgeStyle=orthogonalEdgeStyle;rounded=0;orthogonalLoop=1;jettySize=auto;html=1;exitX=0.5;exitY=0;exitDx=0;exitDy=0;exitPerimeter=0;entryX=0.5;entryY=1;entryDx=0;entryDy=0;entryPerimeter=0;" edge="1" parent="1" source="bGtndV-CN3Tlhhb5ca_9-15" target="bGtndV-CN3Tlhhb5ca_9-16">
          <mxGeometry relative="1" as="geometry" />
        </mxCell>
        <mxCell id="bGtndV-CN3Tlhhb5ca_9-15" value="출력문" style="strokeWidth=2;html=1;shape=mxgraph.flowchart.loop_limit;whiteSpace=wrap;rotation=-180;" vertex="1" parent="1">
          <mxGeometry x="280" y="880" width="100" height="60" as="geometry" />
        </mxCell>
        <mxCell id="bGtndV-CN3Tlhhb5ca_9-29" style="edgeStyle=orthogonalEdgeStyle;rounded=0;orthogonalLoop=1;jettySize=auto;html=1;exitX=0.5;exitY=0;exitDx=0;exitDy=0;exitPerimeter=0;entryX=0.5;entryY=0;entryDx=0;entryDy=0;entryPerimeter=0;" edge="1" parent="1" source="bGtndV-CN3Tlhhb5ca_9-16" target="bGtndV-CN3Tlhhb5ca_9-28">
          <mxGeometry relative="1" as="geometry" />
        </mxCell>
        <mxCell id="bGtndV-CN3Tlhhb5ca_9-16" value="역순 정렬" style="strokeWidth=2;html=1;shape=mxgraph.flowchart.loop_limit;whiteSpace=wrap;rotation=-180;" vertex="1" parent="1">
          <mxGeometry x="260" y="960" width="140" height="60" as="geometry" />
        </mxCell>
        <mxCell id="bGtndV-CN3Tlhhb5ca_9-25" value="" style="endArrow=classic;html=1;rounded=0;exitX=0.517;exitY=0.883;exitDx=0;exitDy=0;exitPerimeter=0;" edge="1" parent="1" source="bGtndV-CN3Tlhhb5ca_9-13" target="bGtndV-CN3Tlhhb5ca_9-15">
          <mxGeometry width="50" height="50" relative="1" as="geometry">
            <mxPoint x="310" y="780" as="sourcePoint" />
            <mxPoint x="360" y="730" as="targetPoint" />
          </mxGeometry>
        </mxCell>
        <mxCell id="bGtndV-CN3Tlhhb5ca_9-27" value="" style="endArrow=classic;html=1;rounded=0;entryX=0.5;entryY=0;entryDx=0;entryDy=0;entryPerimeter=0;" edge="1" parent="1" source="bGtndV-CN3Tlhhb5ca_9-14" target="bGtndV-CN3Tlhhb5ca_9-12">
          <mxGeometry width="50" height="50" relative="1" as="geometry">
            <mxPoint x="310" y="780" as="sourcePoint" />
            <mxPoint x="360" y="730" as="targetPoint" />
          </mxGeometry>
        </mxCell>
        <mxCell id="bGtndV-CN3Tlhhb5ca_9-28" value="End" style="strokeWidth=2;html=1;shape=mxgraph.flowchart.start_1;whiteSpace=wrap;" vertex="1" parent="1">
          <mxGeometry x="280" y="1040" width="100" height="60" as="geometry" />
        </mxCell>
      </root>
    </mxGraphModel>
  </diagram>
</mxfile>
